<?xml version="1.0" encoding="UTF-8"?>
<svg version="1.1" xmlns="http://www.w3.org/2000/svg" width="227" height="248">
<path d="M0 0 C0.83088135 0.00563965 1.6617627 0.0112793 2.51782227 0.01708984 C18.8768049 0.33364454 33.90380481 4.83662251 46 16.3125 C48.17421343 18.87384046 50.14529537 21.51225967 52 24.3125 C58.86547824 23.55613375 65.59913431 22.33010729 72.375 21 C73.4475 20.79955078 74.52 20.59910156 75.625 20.39257812 C84.00039159 18.74704803 91.98889891 16.69708975 98.9375 11.5625 C102 9.3125 102 9.3125 105 9.3125 C108.36309637 16.03869274 106.29338675 27.50579595 104.3125 34.375 C103.012971 38.17037531 101.59907851 41.16059176 99.125 44.3125 C96.70143279 47.03621986 96.70143279 47.03621986 97.25 49.75 C98.78241686 51.99389612 100.34114624 53.7738572 102.1875 55.75 C114.89036144 69.75231908 118.47598948 89.73370468 118.203125 108.015625 C117.84462912 113.83428885 116.96474536 119.56709683 116 125.3125 C115.34 125.3125 114.68 125.3125 114 125.3125 C113.90525391 126.69695312 113.90525391 126.69695312 113.80859375 128.109375 C113.03455518 136.35492267 111.442013 143.49897059 108.5 151.25 C106.08433553 157.62322945 104.43780218 163.44992523 103.875 170.25 C102.73628597 183.32625805 98.48407496 192.25801729 89 201.3125 C88.44570312 201.87453125 87.89140625 202.4365625 87.3203125 203.015625 C82.89162534 207.2019462 77.64198805 209.80071257 72.26171875 212.5859375 C69.41240122 214.09419899 66.71776431 215.70841667 64 217.4375 C56.46023092 222.01739204 48.19299133 224.71121097 39.75 227.125 C34.99332479 228.49146306 30.88935579 230.35186236 26.5402832 232.65039062 C17.41938294 237.40825202 17.41938294 237.40825202 13.046875 237.11328125 C10.46684774 236.08694965 8.35599736 234.77695516 6 233.3125 C-0.78628231 229.49420305 -7.3883877 227.18441136 -14.9375 225.375 C-24.32229269 222.97391083 -31.91363982 219.77555374 -39.9375 214.3125 C-42.82468676 212.42699028 -45.61816876 211.11214496 -48.75 209.6875 C-60.26000768 204.00389819 -68.2722501 193.99581377 -72.75 182.0625 C-73.91397165 178.3075406 -74.29394386 174.65460754 -74.6875 170.75 C-75.42498439 164.83740964 -77.13984719 160.52580704 -79.9375 155.375 C-86.23366016 143.68333926 -87.98856524 131.60109812 -87 118.3125 C-86.505 117.3225 -86.505 117.3225 -86 116.3125 C-86.54269531 116.8178125 -87.08539063 117.323125 -87.64453125 117.84375 C-88.71767578 118.81828125 -88.71767578 118.81828125 -89.8125 119.8125 C-90.87404297 120.78703125 -90.87404297 120.78703125 -91.95703125 121.78125 C-94 123.3125 -94 123.3125 -97 123.3125 C-97.90131018 94.06999201 -89.30185848 69.9578871 -71 47.3125 C-72.45588246 44.25374695 -74.16693078 41.47083996 -76 38.625 C-81.78619978 29.0001506 -81.84310684 19.1407527 -80 8.3125 C-76.49786923 9.08369086 -73.56445774 10.47435244 -70.36523438 12.09375 C-61.66789691 16.46191949 -53.72846362 19.11675805 -44 20.3125 C-43.22914062 20.41433594 -42.45828125 20.51617188 -41.6640625 20.62109375 C-35.74981083 20.99498322 -30.14500115 19.19655259 -24.4675293 17.74487305 C-18.25582222 16.21656858 -12.39494653 15.86891989 -6 16.3125 C-7.10281127 15.04049029 -8.20730769 13.76994147 -9.3125 12.5 C-10.23482422 11.43845703 -10.23482422 11.43845703 -11.17578125 10.35546875 C-12.92202302 8.3288477 -12.92202302 8.3288477 -14.73046875 6.73828125 C-16 5.3125 -16 5.3125 -16 2.3125 C-10.5494214 0.49322443 -5.73178404 -0.04097058 0 0 Z " fill="#071326" transform="translate(102,5.6875)"/>
<path d="M0 0 C14.79452717 0.68177545 29.12312784 5.06717275 39.4609375 16.06640625 C42.72909424 20.17233921 46 24.64737179 46 30 C46.72960937 29.68546875 47.45921875 29.3709375 48.2109375 29.046875 C56.99054092 25.4483215 65.69484583 23.37687999 74.95263672 21.44091797 C81.92867203 19.93856646 88.53281508 18.01801963 95 15 C94.42902005 21.85175943 92.43141976 27.21101851 87.875 32.4375 C83.72778241 34.6914226 79.66020288 34.81902125 75 35 C75.7734375 35.68964844 76.546875 36.37929688 77.34375 37.08984375 C91.87582743 50.14110904 103.55812266 63.8236802 106 84 C106.19766328 88.34859223 106.19214444 92.6518425 106 97 C104.35 96.01 102.7 95.02 101 94 C101.23976562 95.90845703 101.23976562 95.90845703 101.484375 97.85546875 C102.8265799 110.02812487 103.93870633 124.49145497 99 136 C98.34 136.33 97.68 136.66 97 137 C94.11248082 132.0370764 91.86663007 127.89352363 93 122 C93.969375 121.38125 94.93875 120.7625 95.9375 120.125 C99.10903287 118.37374855 99.10903287 118.37374855 99.7265625 115.86328125 C100.47037871 111.41174118 100.47037871 111.41174118 98.93359375 107.34765625 C96.16425879 105.4175137 93.25119827 104.79746373 90 104 C89.90501221 103.39639648 89.81002441 102.79279297 89.7121582 102.17089844 C87.37766503 87.63469525 84.40705806 75.78972948 77 63 C77.2165625 64.68416016 77.2165625 64.68416016 77.4375 66.40234375 C78.38510154 73.97048759 79.27792773 81.35698747 79 89 C66.30286741 82.04999058 58.95506162 67.65107561 53 55 C52.78085938 55.58265625 52.56171875 56.1653125 52.3359375 56.765625 C51.26680701 59.52971847 50.14446021 62.26621103 49 65 C48.59910156 65.96164063 48.19820312 66.92328125 47.78515625 67.9140625 C41.5265714 81.66480834 30.09494717 93.26908741 16 99 C2.3592233 104 2.3592233 104 -1 104 C-0.80664062 103.19304687 -0.61328125 102.38609375 -0.4140625 101.5546875 C2.66312851 87.20461852 3.20486305 72.61795754 4 58 C3.34 58 2.68 58 2 58 C1.9071875 58.72703125 1.814375 59.4540625 1.71875 60.203125 C-0.78249562 69.93623295 -12.61731215 80.09918125 -20.875 85.3125 C-30.90865335 90.93009752 -40.57109671 93.20050708 -52 93 C-50.34286144 80.435427 -45.82989591 70.64112708 -38.57421875 60.30078125 C-36.90588601 58.32708004 -36.90588601 58.32708004 -37 57 C-50.08750029 64.90703142 -56.890874 80.09162395 -60.4765625 94.4765625 C-61.20327069 97.97994675 -61.66398622 101.43825394 -62 105 C-63.093125 105.103125 -64.18625 105.20625 -65.3125 105.3125 C-68.81388619 105.76689628 -68.81388619 105.76689628 -70.9375 107.0625 C-72.66006721 110.20365197 -72.36723033 113.49718763 -72 117 C-71.67 117.99 -71.34 118.98 -71 120 C-67.99152582 121.22520264 -67.99152582 121.22520264 -65 122 C-65.31021614 128.97986313 -68.4951958 134.07291522 -72 140 C-79.11698401 131.82643293 -78.66547445 118.23166968 -78 108 C-77.11902412 98.54174505 -74.18012549 89.88493076 -71 81 C-71.33 80.67 -71.66 80.34 -72 80 C-76.62 84.62 -81.24 89.24 -86 94 C-88.68712774 85.93861677 -82.30630034 73.06165609 -78.75 65.625 C-71.10184336 51.27639309 -61.19279298 41.18485588 -48 32 C-49.918125 32.1546875 -49.918125 32.1546875 -51.875 32.3125 C-57.73119743 32.3032485 -62.20846928 30.27478718 -67 27 C-70.67475101 22.87710862 -71.56331488 19.45856395 -72 14 C-71.2884375 14.28746094 -70.576875 14.57492188 -69.84375 14.87109375 C-67.07424933 15.97052465 -64.29512232 17.03003207 -61.5 18.0625 C-60.5821875 18.40410156 -59.664375 18.74570312 -58.71875 19.09765625 C-46.66781518 23.09731996 -32.83846457 22.00235276 -20.98046875 17.97265625 C-14.38097545 15.81895529 -7.99745029 15.8473998 -1.125 15.875 C-0.16980469 15.87113281 0.78539063 15.86726563 1.76953125 15.86328125 C7.27334794 15.87083107 12.55562861 16.18913618 18 17 C12.96249204 11.70920951 7.69699694 7.02283952 1.90625 2.56640625 C1.2771875 2.04949219 0.648125 1.53257813 0 1 C0 0.67 0 0.34 0 0 Z " fill="#20396F" transform="translate(103,15)"/>
<path d="M0 0 C0.66 0 1.32 0 2 0 C7 10 7 10 7.9140625 12.203125 C9.29755839 14.4923628 10.55557348 14.98601566 13 16 C13.61359375 16.33 14.2271875 16.66 14.859375 17 C25.84976544 22.81309908 36.59250475 23.50282715 48.546875 19.93359375 C51.78751981 18.70029103 54.22639814 17.06242189 57 15 C57.66 15 58.32 15 59 15 C59.07476562 15.61746094 59.14953125 16.23492187 59.2265625 16.87109375 C60.85095266 27.33407742 66.73288716 35.43986187 75 42 C76.94232416 43.01611716 76.94232416 43.01611716 79 43 C89.38181452 36.87794031 94.95409249 26.18093998 98 15 C98.556875 15.33773437 99.11375 15.67546875 99.6875 16.0234375 C111.16557509 22.73190706 120.97850723 23.25537319 133.84375 20.0390625 C143.29021552 16.92921123 148.31762078 11.08727094 152.8125 2.5625 C153.204375 1.716875 153.59625 0.87125 154 0 C157.01475889 3.05474243 157.39931419 5.66556095 157.46850586 9.88867188 C157.45827393 10.62666016 157.44804199 11.36464844 157.4375 12.125 C157.42920166 12.88619141 157.42090332 13.64738281 157.41235352 14.43164062 C157.10082577 24.85285352 153.0817027 32.40580566 146 40 C144.68 40.99 143.36 41.98 142 43 C142.33 39.37 142.66 35.74 143 32 C142.34 32 141.68 32 141 32 C140.95875 32.66 140.9175 33.32 140.875 34 C138.12342394 43.43397505 128.3149023 52.33542246 120.0625 57.125 C117.84765625 58.3203125 117.84765625 58.3203125 116 59 C115.34 58.67 114.68 58.34 114 58 C117.465 51.07 117.465 51.07 121 44 C119.63875 45.44375 118.2775 46.8875 116.875 48.375 C108.425705 56.78869404 98.7367446 63.17893439 88.4375 69.125 C87.77089355 69.5156665 87.10428711 69.90633301 86.41748047 70.30883789 C82.83104247 72.31350635 80.12555154 73.69460817 76 73 C73.95703125 72.07421875 73.95703125 72.07421875 71.8125 70.6875 C70.95398438 70.14351563 70.09546875 69.59953125 69.2109375 69.0390625 C68.15132813 68.36617188 67.09171875 67.69328125 66 67 C64.55685125 66.12921641 63.11135537 65.26231581 61.6640625 64.3984375 C43.56134913 53.56134913 43.56134913 53.56134913 38 48 C38.28875 48.62648437 38.5775 49.25296875 38.875 49.8984375 C39.24625 50.71570313 39.6175 51.53296875 40 52.375 C40.37125 53.18710938 40.7425 53.99921875 41.125 54.8359375 C42 57 42 57 42 59 C33.9341795 57.50772876 26.55474045 51.41889063 21.50390625 45.1875 C18.37157879 40.63138733 15 35.63553894 15 30 C14.34 30 13.68 30 13 30 C13 34.29 13 38.58 13 43 C5.06397838 36.65118271 0.37109015 27.90199581 -2 18 C-2.62225038 11.7230493 -2.60192085 5.85432191 0 0 Z " fill="#F7E9BF" transform="translate(39,159)"/>
<path d="M0 0 C8.22105874 7.01797698 8.22105874 7.01797698 8.765625 13.66796875 C8.90760802 21.86748833 7.98123693 29.51773224 2.22265625 35.83984375 C-5.33174819 41.97224265 -13.92759483 44.0752533 -23.4375 43.1875 C-29.57738163 41.64050633 -34.80149981 39.60017128 -39.4375 35.1875 C-40.984375 32.27734375 -40.984375 32.27734375 -42.1875 29.125 C-42.59484375 28.08214844 -43.0021875 27.03929687 -43.421875 25.96484375 C-45.19594792 21.11343665 -45.68496838 16.94566221 -45.75 11.8125 C-45.79350586 10.67941406 -45.79350586 10.67941406 -45.83789062 9.5234375 C-45.88215726 5.62797372 -45.7114746 3.64033575 -43.6484375 0.23046875 C-34.86430601 -7.88631706 -9.83400026 -5.18520014 0 0 Z " fill="#44264F" transform="translate(92.4375,128.8125)"/>
<path d="M0 0 C0.79124268 -0.00950684 1.58248535 -0.01901367 2.39770508 -0.02880859 C15.73139125 0.04579705 15.73139125 0.04579705 20.96484375 4.30859375 C23.00272989 8.37896049 23.08076623 11.81355465 23 16.3125 C22.98573975 17.57634521 22.98573975 17.57634521 22.97119141 18.86572266 C22.71227113 26.68870704 21.20665586 33.99085388 15.875 40.015625 C14.3125 41.375 14.3125 41.375 11.4375 43.25 C10.4475 43.91 9.4575 44.57 8.4375 45.25 C0.58577105 47.80417689 -7.8587133 48.65054462 -15.58203125 45.3515625 C-23.62854502 40.8759868 -27.71450693 34.79397922 -30.5625 26.25 C-31.52309113 13.44827586 -31.52309113 13.44827586 -27.5625 8.25 C-19.55368432 0.2988017 -10.72057849 0.10590789 0 0 Z " fill="#2A1C3E" transform="translate(163.5625,124.75)"/>
<path d="M0 0 C1.06734375 0.43119141 1.06734375 0.43119141 2.15625 0.87109375 C4.92575067 1.97052465 7.70487768 3.03003207 10.5 4.0625 C11.4178125 4.40410156 12.335625 4.74570312 13.28125 5.09765625 C25.33218482 9.09731996 39.16153543 8.00235276 51.01953125 3.97265625 C57.6034028 1.82405335 64.01592905 1.81709108 70.875 1.8125 C71.83019531 1.80025391 72.78539063 1.78800781 73.76953125 1.77539062 C79.5379404 1.76352147 84.46966961 2.34613051 90 4 C90 4.33 90 4.66 90 5 C88.76765625 5.10957031 87.5353125 5.21914063 86.265625 5.33203125 C52.93669737 8.45303328 27.36081391 22.32589558 5.53271484 47.70605469 C2.53132216 51.35927039 -0.25388339 55.15070206 -3 59 C-3.59264648 59.80945068 -3.59264648 59.80945068 -4.19726562 60.63525391 C-9.18648903 66.80047392 -9.18648903 66.80047392 -10.9609375 74.16015625 C-10.97382813 75.09730469 -10.98671875 76.03445312 -11 77 C-13 78.875 -13 78.875 -15 80 C-11.80602473 57.07011787 -1.45738531 37.16440116 17.0456543 22.97021484 C19.33378785 21.26968079 21.6548203 19.62075246 24 18 C22.72125 18.103125 21.4425 18.20625 20.125 18.3125 C14.26880257 18.3032485 9.79153072 16.27478718 5 13 C1.32524899 8.87710862 0.43668512 5.45856395 0 0 Z " fill="#2E4A88" transform="translate(31,29)"/>
<path d="M0 0 C8.22105874 7.01797698 8.22105874 7.01797698 8.765625 13.66796875 C8.90760802 21.86748833 7.98123693 29.51773224 2.22265625 35.83984375 C-5.33174819 41.97224265 -13.92759483 44.0752533 -23.4375 43.1875 C-29.57738163 41.64050633 -34.80149981 39.60017128 -39.4375 35.1875 C-40.984375 32.27734375 -40.984375 32.27734375 -42.1875 29.125 C-42.59484375 28.08214844 -43.0021875 27.03929687 -43.421875 25.96484375 C-45.19594792 21.11343665 -45.68496838 16.94566221 -45.75 11.8125 C-45.79350586 10.67941406 -45.79350586 10.67941406 -45.83789062 9.5234375 C-45.88215726 5.62797372 -45.7114746 3.64033575 -43.6484375 0.23046875 C-34.86430601 -7.88631706 -9.83400026 -5.18520014 0 0 Z M-28.23828125 7.50390625 C-31.15822925 11.60324692 -30.9980996 16.37568681 -30.4375 21.1875 C-28.44195599 27.3693483 -25.19408353 30.99219697 -19.5859375 34.26953125 C-14.69819182 36.35793168 -9.12874065 35.7404056 -4.1875 34.125 C1.22482224 30.31177296 5.18581358 25.79559483 6.5625 19.1875 C7.22710269 13.20607582 5.83660562 9.09865844 2.5625 4.1875 C-1.92674417 -0.4230751 -7.19276033 -1.82639849 -13.5 -2.1875 C-20.42163799 -1.52829638 -23.95221845 2.45287686 -28.23828125 7.50390625 Z " fill="#F6E9C2" transform="translate(92.4375,128.8125)"/>
<path d="M0 0 C0.79124268 -0.00950684 1.58248535 -0.01901367 2.39770508 -0.02880859 C15.73139125 0.04579705 15.73139125 0.04579705 20.96484375 4.30859375 C23.00272989 8.37896049 23.08076623 11.81355465 23 16.3125 C22.98573975 17.57634521 22.98573975 17.57634521 22.97119141 18.86572266 C22.71227113 26.68870704 21.20665586 33.99085388 15.875 40.015625 C14.3125 41.375 14.3125 41.375 11.4375 43.25 C10.4475 43.91 9.4575 44.57 8.4375 45.25 C0.58577105 47.80417689 -7.8587133 48.65054462 -15.58203125 45.3515625 C-23.62854502 40.8759868 -27.71450693 34.79397922 -30.5625 26.25 C-31.52309113 13.44827586 -31.52309113 13.44827586 -27.5625 8.25 C-19.55368432 0.2988017 -10.72057849 0.10590789 0 0 Z M-23.39453125 8.1328125 C-27.18720221 13.08904294 -28.45214416 17.37604922 -28.0859375 23.6015625 C-26.97734359 29.21071677 -24.05134489 32.86750118 -19.9375 36.6875 C-15.09479791 39.87348822 -10.17935226 39.84913091 -4.5625 39.25 C0.73388415 37.58980463 4.48161762 35.02488692 7.4375 30.25 C9.59833958 25.28006896 10.56623351 20.4470614 8.71484375 15.203125 C6.28083189 9.96063792 3.2686409 5.90149886 -1.8125 2.9375 C-10.02800102 0.88362475 -17.34816305 1.91884774 -23.39453125 8.1328125 Z " fill="#F5E9C3" transform="translate(163.5625,124.75)"/>
<path d="M0 0 C3.74462024 3.68975401 7.3302565 7.4937446 10.875 11.375 C14.26517229 15.07431924 17.67168971 18.7301111 21.25 22.25 C22.1575 23.1575 23.065 24.065 24 25 C24 25.33 24 25.66 24 26 C23.02728149 26.02187378 23.02728149 26.02187378 22.03491211 26.04418945 C-2.28258658 25.74146278 -2.28258658 25.74146278 -24 35 C-26.7707133 38.03841507 -28.68963516 41.06890547 -30 45 C-35.94 45 -41.88 45 -48 45 C-51 39 -51 39 -51 37 C-50.00742188 36.731875 -49.01484375 36.46375 -47.9921875 36.1875 C-26.54968569 30.12067243 -12.30914766 18.53047392 0 0 Z " fill="#F3DEB2" transform="translate(156,89)"/>
<path d="M0 0 C0.66 0.33 1.32 0.66 2 1 C-3.6207062 19.65278606 -12.88218383 35.46800286 -30.625 45.125 C-45.33152174 52 -45.33152174 52 -52 52 C-51.75 48.625 -51.75 48.625 -51 45 C-50.41476563 44.71382812 -49.82953125 44.42765625 -49.2265625 44.1328125 C-40.31669328 39.59972114 -35.36616854 24.80484086 -32 16 C-29.85786654 22.42640038 -32.60515446 30.84182576 -35 37 C-33.66141429 36.1540882 -32.32949473 35.29762919 -31 34.4375 C-30.2575 33.96183594 -29.515 33.48617187 -28.75 32.99609375 C-21.81345361 27.96118579 -16.38496287 22.39066037 -11.3125 15.5 C-10.77044922 14.77941406 -10.22839844 14.05882813 -9.66992188 13.31640625 C-6.37874939 8.92552957 -3.17432647 4.47585921 0 0 Z " fill="#182B4F" transform="translate(154,67)"/>
<path d="M0 0 C7.4298983 1.05400883 13.4300311 8.82933045 17.80078125 14.53125 C21.90103728 20.12501126 25.8139451 25.83125541 29 32 C28.67 32.66 28.34 33.32 28 34 C27.34 33.67 26.68 33.34 26 33 C26.15984375 34.27230469 26.3196875 35.54460937 26.484375 36.85546875 C27.8265799 49.02812487 28.93870633 63.49145497 24 75 C23.01 75.495 23.01 75.495 22 76 C19.11248082 71.0370764 16.86663007 66.89352363 18 61 C19.4540625 60.071875 19.4540625 60.071875 20.9375 59.125 C24.10903287 57.37374855 24.10903287 57.37374855 24.7265625 54.86328125 C25.47037871 50.41174118 25.47037871 50.41174118 23.93359375 46.34765625 C21.16425879 44.4175137 18.25119827 43.79746373 15 43 C14.90501221 42.39639648 14.81002441 41.79279297 14.7121582 41.17089844 C12.40448837 26.80171628 9.68741427 14.52763806 2 2 C1.34 2 0.68 2 0 2 C0 1.34 0 0.68 0 0 Z " fill="#182C51" transform="translate(178,76)"/>
<path d="M0 0 C3.01475889 3.05474243 3.39931419 5.66556095 3.46850586 9.88867188 C3.45315796 10.9956543 3.45315796 10.9956543 3.4375 12.125 C3.42920166 12.88619141 3.42090332 13.64738281 3.41235352 14.43164062 C3.10082577 24.85285352 -0.9182973 32.40580566 -8 40 C-9.32 40.99 -10.64 41.98 -12 43 C-11.67 39.37 -11.34 35.74 -11 32 C-11.66 32 -12.32 32 -13 32 C-13.04125 32.66 -13.0825 33.32 -13.125 34 C-15.51908832 42.20830281 -23.86300373 50.68038687 -30.91015625 55.234375 C-32.5625 56.0625 -32.5625 56.0625 -35 57 C-35.66 56.34 -36.32 55.68 -37 55 C-36.45472656 54.56171875 -35.90945312 54.1234375 -35.34765625 53.671875 C-24.60222314 44.63469023 -15.00858775 32.42484711 -12.51171875 18.22265625 C-11.8210127 15.22256659 -10.07394258 14.44469917 -7.69921875 12.66796875 C-4.15015976 9.18417981 -2.18144879 4.41704701 0 0 Z " fill="#F2D5A3" transform="translate(193,159)"/>
<path d="M0 0 C3.00339406 1.29145944 3.82918389 2.32822632 6 5 C7.70495307 9.97192902 7.17438743 14.2370561 5 19 C2.47620268 23.2643472 -0.40244396 26.60230818 -4 30 C-9.58668986 27.5384779 -12.70195615 23.07687016 -15.875 18 C-17.24682408 14.34180246 -17.48522699 11.88181595 -17 8 C-12.80552777 0.3342404 -8.36075247 -1.23334082 0 0 Z " fill="#EFB13B" transform="translate(122,163)"/>
<path d="M0 0 C-0.03480469 0.59167969 -0.06960937 1.18335938 -0.10546875 1.79296875 C-0.31058028 7.78027187 0.47481648 10.89091519 4.30078125 15.6015625 C7.15194979 17.94804144 9.98991607 17.53105558 13.546875 17.40625 C16.26100236 17.12236724 16.26100236 17.12236724 19.125 15 C21.70095914 10.87846537 21.53503474 8.81531263 21 4 C20.13734032 1.59442147 20.13734032 1.59442147 19 0 C22.7952131 1.49097658 24.61042731 3.75700849 27 7 C27.66 6.01 28.32 5.02 29 4 C30 5 30 5 30.3125 8 C30.21283388 12.84377338 28.60966141 16.94895584 26 21 C20.76101156 26.02466618 15.61485273 27.36340207 8.5703125 27.28125 C3.41731574 26.71739625 0.19686599 24.29390918 -3.3125 20.5 C-6.13527234 16.31811504 -7.29162453 13.55199046 -7.3125 8.4375 C-7.32925781 7.48746094 -7.34601563 6.53742188 -7.36328125 5.55859375 C-7 3 -7 3 -5.73046875 1.16015625 C-4 0 -4 0 0 0 Z " fill="#462751" transform="translate(143,137)"/>
<path d="M0 0 C4.42871657 2.21435828 6.54300595 4.72301036 9 9 C9 9.66 9 10.32 9 11 C8.34 11 7.68 11 7 11 C6.92652344 11.55300781 6.85304688 12.10601562 6.77734375 12.67578125 C5.70749534 15.87457423 3.84153049 17.71885417 1.5625 20.1875 C0.75941406 21.06792969 -0.04367188 21.94835937 -0.87109375 22.85546875 C-3.75897574 25.76454621 -4.56993285 25.95699329 -8.75 26.375 C-12.50815819 26.29270457 -15.11247376 25.42276713 -17.94921875 22.76953125 C-19.76217933 19.71647868 -19.37702126 16.65633688 -19.11328125 13.20703125 C-18.8161776 10.95724984 -18.8161776 10.95724984 -20 9 C-18.1875 8.375 -18.1875 8.375 -16 8 C-15.01 8.66 -14.02 9.32 -13 10 C-12.443125 9.34 -11.88625 8.68 -11.3125 8 C-9 6 -9 6 -6.5625 5.4375 C-2.94175253 6.23229822 -1.39148675 8.26687229 1 11 C2.12516085 9.16715557 2.12516085 9.16715557 3 7 C2.67 6.01 2.34 5.02 2 4 C1.34 3.67 0.68 3.34 0 3 C0 2.01 0 1.02 0 0 Z " fill="#2B1D3F" transform="translate(89,129)"/>
<path d="M0 0 C0.82951172 0.70576172 0.82951172 0.70576172 1.67578125 1.42578125 C1.04671875 1.28140625 0.41765625 1.13703125 -0.23046875 0.98828125 C-10.11640894 -1.37396426 -10.11640894 -1.37396426 -19.57421875 1.23828125 C-20.48171875 1.96015625 -21.38921875 2.68203125 -22.32421875 3.42578125 C-24.52806547 5.07866629 -26.70105467 6.67116278 -29.01171875 8.17578125 C-32.65027372 10.55805765 -35.99338582 13.30082126 -39.37109375 16.03515625 C-41.32421875 17.42578125 -41.32421875 17.42578125 -43.32421875 17.42578125 C-43.65421875 18.41578125 -43.98421875 19.40578125 -44.32421875 20.42578125 C-44.43258545 17.69554235 -44.51168569 14.96963582 -44.57421875 12.23828125 C-44.60773437 11.46935547 -44.64125 10.70042969 -44.67578125 9.90820312 C-44.74355497 5.96038418 -44.62002356 3.91771048 -42.5390625 0.45703125 C-34.64262884 -6.78484794 -8.66594135 -5.86953675 0 0 Z " fill="#F1D7A8" transform="translate(91.32421875,128.57421875)"/>
<path d="M0 0 C0.66 0.33 1.32 0.66 2 1 C-8.89377824 17.00594233 -21.24412878 28.79541602 -40.6875 32.75 C-44.48262753 33.03642472 -48.19492297 33.06675574 -52 33 C-51.67 31.35 -51.34 29.7 -51 28 C-49.22109375 27.48953125 -49.22109375 27.48953125 -47.40625 26.96875 C-30.75182157 22.0417933 -15.16283958 15.85785899 -3 3 C-2 2 -1 1 0 0 Z " fill="#172B4E" transform="translate(103,75)"/>
<path d="M0 0 C1.2375 0.495 1.2375 0.495 2.5 1 C2.5 1.99 2.5 2.98 2.5 4 C3.82 4.66 5.14 5.32 6.5 6 C6.17 8.64 5.84 11.28 5.5 14 C4.51 14.33 3.52 14.66 2.5 15 C2.025625 14.030625 1.55125 13.06125 1.0625 12.0625 C-0.20193947 9.19522563 -0.20193947 9.19522563 -1.5 8 C-3.83944736 8.28730055 -6.1739143 8.61936779 -8.5 9 C-9.16 11.31 -9.82 13.62 -10.5 16 C-10.83 16 -11.16 16 -11.5 16 C-11.5 14.02 -11.5 12.04 -11.5 10 C-15.97883696 10.44703986 -15.97883696 10.44703986 -19.5 13 C-20.17784992 15.33010909 -20.84416793 17.66359824 -21.5 20 C-22.16 20.99 -22.82 21.98 -23.5 23 C-25.05090815 21.44909185 -24.70677311 19.96303767 -24.75 17.8125 C-24.64773455 12.41799739 -23.51866052 8.99389168 -19.58984375 5.11328125 C-13.18157167 -0.62043588 -8.53797826 -2.43942236 0 0 Z " fill="#241938" transform="translate(86.5,128)"/>
<path d="M0 0 C-0.46887408 7.59899376 -1.55770487 15.11540973 -5 22 C-6.19496094 21.79503906 -7.38992187 21.59007813 -8.62109375 21.37890625 C-10.22653991 21.1066376 -11.83200995 20.83450974 -13.4375 20.5625 C-14.22060547 20.42779297 -15.00371094 20.29308594 -15.81054688 20.15429688 C-21.1952821 19.2457613 -26.56774332 18.56008252 -32 18 C-29.46930513 16.69005882 -27.07314036 15.66441289 -24.375 14.6875 C-15.93768411 11.52546325 -9.28314914 7.81930349 -2.71484375 1.57421875 C-1 0 -1 0 0 0 Z " fill="#E9D6AB" transform="translate(98,97)"/>
<path d="M0 0 C1.53905134 4.37884929 0.09519792 6.79356354 -1.81640625 10.80859375 C-3.65359163 14.2101152 -5.48578265 17.24289133 -9 19 C-13.01158666 19.73682204 -16.92056799 20.20563894 -21 20 C-23.75 17.5625 -23.75 17.5625 -25 15 C-21.13489417 12.25702167 -17.67260721 11.37639982 -13.0859375 10.625 C-10.65129671 9.89551961 -9.71361709 8.8225754 -8 7 C-7.34 7 -6.68 7 -6 7 C-6 6.34 -6 5.68 -6 5 C-4.04072937 3.2856382 -2.04119788 1.61594832 0 0 Z " fill="#192F58" transform="translate(197,30)"/>
<path d="M0 0 C1 2 1 2 0.28515625 4.35546875 C-2.75678477 11.40149827 -6.01295399 15.33975356 -12 20 C-13.293612 21.24798668 -14.58516936 22.49810556 -15.875 23.75 C-24.28272314 31.2742496 -34.85891319 37.13163137 -45 42 C-45 41.01 -45 40.02 -45 39 C-43.26269531 37.54882812 -43.26269531 37.54882812 -40.828125 36.03125 C-39.94165283 35.46575439 -39.05518066 34.90025879 -38.1418457 34.31762695 C-37.18753662 33.71781006 -36.23322754 33.11799316 -35.25 32.5 C-21.85599039 23.82286983 -8.95696653 13.4354498 0 0 Z " fill="#E7CFA2" transform="translate(166,189)"/>
<path d="M0 0 C0.99 0.33 1.98 0.66 3 1 C3.51953125 2.99609375 3.51953125 2.99609375 3.8125 5.4375 C4.19019407 7.87028145 4.19019407 7.87028145 5 10 C7.98283157 11.69165301 7.98283157 11.69165301 11 12 C10.68978386 18.97986313 7.5048042 24.07291522 4 30 C-0.80816091 24.53618078 -1.2499979 18.58639176 -0.8203125 11.63085938 C-0.75585938 10.78330078 -0.69140625 9.93574219 -0.625 9.0625 C-0.56828125 8.18787109 -0.5115625 7.31324219 -0.453125 6.41210938 C-0.31292119 4.27400131 -0.15797033 2.13686887 0 0 Z " fill="#22396C" transform="translate(27,125)"/>
<path d="M0 0 C3 1 3 1 5.25 3.3125 C12.34041374 10.24176797 21.32278579 13.13596302 31 14 C27.68510385 18.01276903 24.28099888 17.86972893 19.3125 18.375 C13.88850667 18.29266234 9.43486511 15.98274114 5 13 C1.32524899 8.87710862 0.43668512 5.45856395 0 0 Z " fill="#213A70" transform="translate(31,29)"/>
<path d="M0 0 C0.84151611 -0.00950684 1.68303223 -0.01901367 2.55004883 -0.02880859 C3.74537231 -0.02228271 3.74537231 -0.02228271 4.96484375 -0.015625 C5.68148193 -0.01336914 6.39812012 -0.01111328 7.13647461 -0.00878906 C9.0625 0.25 9.0625 0.25 12.0625 2.25 C9.41684727 2.42009937 6.77105639 2.58639161 4.125 2.75 C3.34390869 2.79987061 2.56281738 2.84974121 1.75805664 2.90112305 C-2.18999828 3.14003773 -6.04545846 3.26511785 -10 3.0625 C-15.65109504 3.33159976 -19.57746979 4.81550282 -23.546875 8.91015625 C-27.47755713 14.28724107 -27.85864549 19.76319646 -26.9375 26.25 C-26.32536078 27.93745601 -25.67228617 29.61222361 -24.9375 31.25 C-26.2575 31.58 -27.5775 31.91 -28.9375 32.25 C-31.90861999 25.56498003 -31.99875711 17.83174276 -29.9375 10.875 C-25.52529079 5.08397541 -20.36740326 1.60345693 -13.1328125 0.4921875 C-8.75406714 0.16030216 -4.39044717 0.04200597 0 0 Z " fill="#E4DFC9" transform="translate(163.9375,124.75)"/>
<path d="M0 0 C1.3303125 0.00773438 1.3303125 0.00773438 2.6875 0.015625 C3.574375 0.01046875 4.46125 0.0053125 5.375 0 C7.6875 0.265625 7.6875 0.265625 9.6875 2.265625 C9.96200545 5.61459154 9.77378804 8.90039163 9.6875 12.265625 C5.0675 12.265625 0.4475 12.265625 -4.3125 12.265625 C-4.5078125 4.6484375 -4.5078125 4.6484375 -4.3125 2.265625 C-2.3125 0.265625 -2.3125 0.265625 0 0 Z " fill="#F0DBAF" transform="translate(114.3125,142.734375)"/>
<path d="M0 0 C0.66 0.33 1.32 0.66 2 1 C0.02 1.99 0.02 1.99 -2 3 C-2 3.66 -2 4.32 -2 5 C-6.62553705 9.77474792 -12.16963109 10.76887871 -18.60571289 11.15722656 C-21.26095929 11.19541394 -23.90751671 11.17564532 -26.5625 11.125 C-27.47580078 11.11597656 -28.38910156 11.10695313 -29.33007812 11.09765625 C-31.55367319 11.07437253 -33.77668677 11.0416771 -36 11 C-35 9 -35 9 -33.19921875 8.2890625 C-25.82972072 6.34067266 -18.39991269 4.83320186 -10.90698242 3.44580078 C-10.07271729 3.28708496 -9.23845215 3.12836914 -8.37890625 2.96484375 C-7.6319751 2.8268335 -6.88504395 2.68882324 -6.11547852 2.54663086 C-3.93154026 2.06756766 -3.93154026 2.06756766 -1.85131836 0.87719727 C-1.2403833 0.58772217 -0.62944824 0.29824707 0 0 Z " fill="#2E4A88" transform="translate(193,32)"/>
<path d="M0 0 C0.66 0.33 1.32 0.66 2 1 C1.56429687 1.49886719 1.12859375 1.99773437 0.6796875 2.51171875 C-8.72401517 13.84908322 -13.62536081 27.42882458 -15 42 C-16.98 42 -18.96 42 -21 42 C-20.32825459 39.98476377 -19.65496143 37.97003742 -18.9765625 35.95703125 C-18.26245402 33.79471077 -17.57316817 31.62414847 -16.8984375 29.44921875 C-13.60916021 18.96253151 -9.66544442 9.09130244 -2 1 C-1.34 0.67 -0.68 0.34 0 0 Z " fill="#172A4E" transform="translate(56,78)"/>
<path d="M0 0 C1.8125 1.125 1.8125 1.125 3 3 C3.42478586 7.07794425 3.31282587 8.53076119 1 12 C-2.4375 12.4375 -2.4375 12.4375 -6 12 C-8 10.375 -8 10.375 -9 8 C-8.875 4.875 -8.875 4.875 -8 2 C-4.76746204 -0.15502531 -3.74849077 -0.46856135 0 0 Z " fill="#F2F1F2" transform="translate(85,135)"/>
<path d="M0 0 C2.73145737 0.88772365 3.89120004 1.44163691 5.5 3.8125 C5.92822025 6.66730169 5.90659584 8.15742892 4.375 10.625 C1.62844028 12.36448782 -0.31846974 12.21019128 -3.5 11.8125 C-5.4375 10.75 -5.4375 10.75 -6.5 8.8125 C-6.375 5.25 -6.375 5.25 -5.5 1.8125 C-2.5 -0.1875 -2.5 -0.1875 0 0 Z " fill="#F1F1F2" transform="translate(152.5,135.1875)"/>
<path d="M0 0 C-0.5681543 -0.14147461 -1.13630859 -0.28294922 -1.72167969 -0.42871094 C-8.94171569 -2.06609654 -15.8665613 -2.3005715 -23.25 -2.25 C-24.3946875 -2.25773437 -25.539375 -2.26546875 -26.71875 -2.2734375 C-28.38164063 -2.26957031 -28.38164063 -2.26957031 -30.078125 -2.265625 C-31.07231445 -2.26336914 -32.06650391 -2.26111328 -33.09082031 -2.25878906 C-36.33747821 -1.96997928 -38.98568225 -1.23018955 -42 0 C-43.33852137 1.89471006 -43.33852137 1.89471006 -43.875 4.125 C-44.09929688 4.84945312 -44.32359375 5.57390625 -44.5546875 6.3203125 C-44.70164063 6.87460938 -44.84859375 7.42890625 -45 8 C-45.33 8 -45.66 8 -46 8 C-46.32865839 4.46692232 -46.22168673 2.42409636 -44.5625 -0.75 C-35.45111013 -8.75024477 -9.20322753 -7.23935381 0 0 Z " fill="#D1C8AA" transform="translate(93,130)"/>
<path d="M0 0 C-0.31021614 6.97986313 -3.4951958 12.07291522 -7 18 C-9.3979567 15.13559145 -10.48740082 12.91205724 -11.1875 9.25 C-11.34605469 8.45078125 -11.50460938 7.6515625 -11.66796875 6.828125 C-11.77753906 6.22484375 -11.88710938 5.6215625 -12 5 C-9.00667261 5.9977758 -8.05233685 6.7522025 -6 9 C-3.86539589 6.21974527 -3.86539589 6.21974527 -3.5 3.375 C-3.335 2.59125 -3.17 1.8075 -3 1 C-1 0 -1 0 0 0 Z " fill="#172B4F" transform="translate(38,137)"/>
<path d="M0 0 C1 2 1 2 0.28515625 4.35546875 C-2.6852749 11.23586039 -5.93204513 15.58831073 -12 20 C-12.66 19.67 -13.32 19.34 -14 19 C-13.42545674 15.56766364 -12.36603005 14.07241585 -9.8125 11.75 C-6.04217751 8.15884573 -3.0059997 4.23923035 0 0 Z " fill="#F5D4A0" transform="translate(166,189)"/>
<path d="M0 0 C1.70884005 1.62339805 3.37446717 3.29319053 5 5 C5 5.66 5 6.32 5 7 C5.66 7 6.32 7 7 7 C7 7.66 7 8.32 7 9 C7.99 9.33 8.98 9.66 10 10 C10 10.66 10 11.32 10 12 C10.66 12 11.32 12 12 12 C12 12.66 12 13.32 12 14 C13.32 14.66 14.64 15.32 16 16 C16 16.99 16 17.98 16 19 C14.04747559 17.5579071 12.10387426 16.10627138 10.171875 14.63671875 C8.86850369 13.65450188 7.54969332 12.69163781 6.203125 11.76953125 C1.56808786 8.40798204 0.91542611 5.40101404 0 0 Z " fill="#F0D3A1" transform="translate(72,196)"/>
<path d="M0 0 C0.33 0 0.66 0 1 0 C1.05411124 2.41696872 1.09372278 4.83271787 1.125 7.25 C1.15013672 8.27287109 1.15013672 8.27287109 1.17578125 9.31640625 C1.21213482 13.0608235 1.07944349 15.82352727 -1 19 C-4.23318592 17.4911799 -6.35302722 16.29394556 -8 13 C-7.05125 12.525625 -6.1025 12.05125 -5.125 11.5625 C-2.04774543 9.56663914 -1.3846897 7.7970806 -0.625 4.25 C-0.39255345 2.83708959 -0.17611081 1.42103209 0 0 Z " fill="#1C325D" transform="translate(204,124)"/>
<path d="M0 0 C2.47567895 1.10030176 4.28628551 2.24108253 6.375 4 C9.18415128 6.14030574 11.61984724 7.05670155 15 8 C14.401875 8.144375 13.80375 8.28875 13.1875 8.4375 C11.43849596 8.8872439 9.71322977 9.42892341 8 10 C7.67 10.66 7.34 11.32 7 12 C5.84501103 10.92643323 4.70132133 9.84070212 3.5625 8.75 C2.92441406 8.14671875 2.28632813 7.5434375 1.62890625 6.921875 C-0.09170805 4.8917977 -0.69157825 3.6243887 -1 1 C-0.67 0.67 -0.34 0.34 0 0 Z " fill="#F3EACD" transform="translate(137,156)"/>
<path d="M0 0 C3.3734229 1.44575267 5.61595146 3.2049086 8 6 C9.07252608 9.18275598 9.16476142 12.21992817 9.1875 15.5625 C9.20167969 16.51253906 9.21585938 17.46257812 9.23046875 18.44140625 C9 21 9 21 7 24 C6.67 23.67 6.34 23.34 6 23 C6.03264681 21.14506753 6.10168067 19.29073375 6.1875 17.4375 C6.26631029 10.08187302 3.96617063 5.94925595 0 0 Z " fill="#F0EBD4" transform="translate(92,130)"/>
<path d="M0 0 C0.99 0.66 1.98 1.32 3 2 C1.63855967 7.19822672 -0.46730171 10.09543873 -4 14 C-5.1875 12.3125 -5.1875 12.3125 -6 10 C-4.8125 7.5625 -4.8125 7.5625 -3 5 C-2.443125 4.071875 -1.88625 3.14375 -1.3125 2.1875 C-0.879375 1.465625 -0.44625 0.74375 0 0 Z " fill="#E0D7BD" transform="translate(97,152)"/>
<path d="M0 0 C2.475 0.99 2.475 0.99 5 2 C4.34 4.64 3.68 7.28 3 10 C2.67 10 2.34 10 2 10 C1.67 12.97 1.34 15.94 1 19 C-1 17 -1 17 -1.23046875 13.84765625 C-1.21628906 12.59855469 -1.20210937 11.34945312 -1.1875 10.0625 C-1.18105469 8.81597656 -1.17460937 7.56945312 -1.16796875 6.28515625 C-1 3 -1 3 0 0 Z " fill="#284076" transform="translate(26,120)"/>
<path d="M0 0 C3 1 3 1 5.25 3.3125 C7.4770436 5.48892897 8.98310983 6.68143554 11.625 8.125 C14.31171811 9.61762117 16.04900869 10.7047161 18 13 C11.76272942 12.86729212 8.64268676 10.56218784 3.91796875 6.59375 C2.0851081 4.94769051 2.0851081 4.94769051 0 4 C0 2.68 0 1.36 0 0 Z " fill="#182D56" transform="translate(31,29)"/>
<path d="M0 0 C1.21236328 0.02707031 1.21236328 0.02707031 2.44921875 0.0546875 C3.37154297 0.08949219 3.37154297 0.08949219 4.3125 0.125 C4.3125 0.455 4.3125 0.785 4.3125 1.125 C3.69761719 1.25777344 3.08273438 1.39054688 2.44921875 1.52734375 C1.23685547 1.79224609 1.23685547 1.79224609 0 2.0625 C-0.80050781 2.23652344 -1.60101563 2.41054687 -2.42578125 2.58984375 C-4.832901 3.12386159 -4.832901 3.12386159 -7.6875 4.125 C-8.3475 8.415 -9.0075 12.705 -9.6875 17.125 C-11.6875 15.125 -11.6875 15.125 -12.0625 11.875 C-11.62460288 7.4960288 -10.44124958 5.50817805 -7.6875 2.125 C-4.48369983 -0.01086678 -3.66810033 -0.10632175 0 0 Z " fill="#DDB33D" transform="translate(116.6875,162.875)"/>
<path d="M0 0 C0.66 0 1.32 0 2 0 C1.88541307 1.43836751 1.75790884 2.87570966 1.625 4.3125 C1.55539063 5.11300781 1.48578125 5.91351563 1.4140625 6.73828125 C1 9 1 9 -1 12 C-0.938125 13.485 -0.938125 13.485 -0.875 15 C-0.91625 15.99 -0.9575 16.98 -1 18 C-3.0078125 19.6875 -3.0078125 19.6875 -5 21 C-3.83760783 13.80684375 -2.25496388 6.93025566 0 0 Z " fill="#2C4785" transform="translate(21,88)"/>
<path d="M0 0 C0.66 0.33 1.32 0.66 2 1 C1.67 3.64 1.34 6.28 1 9 C4.3 9 7.6 9 11 9 C11 7.02 11 5.04 11 3 C11.33 3 11.66 3 12 3 C12 5.64 12 8.28 12 11 C7.71 11 3.42 11 -1 11 C-1.09765625 3.28515625 -1.09765625 3.28515625 -1 1 C-0.67 0.67 -0.34 0.34 0 0 Z " fill="#F0E6C3" transform="translate(111,144)"/>
<path d="M0 0 C0.66 0 1.32 0 2 0 C1.6875 2.375 1.6875 2.375 1 5 C-2 7 -2 7 -4.6875 6.625 C-5.450625 6.41875 -6.21375 6.2125 -7 6 C-7 5.01 -7 4.02 -7 3 C-6.21625 2.87625 -5.4325 2.7525 -4.625 2.625 C-1.85942178 2.20882007 -1.85942178 2.20882007 0 0 Z " fill="#4F2C59" transform="translate(90,156)"/>
<path d="M0 0 C0.66 0.33 1.32 0.66 2 1 C2 1.66 2 2.32 2 3 C2.66 3 3.32 3 4 3 C4 3.66 4 4.32 4 5 C3.34 5 2.68 5 2 5 C1.34 10.28 0.68 15.56 0 21 C-0.33 21 -0.66 21 -1 21 C-0.67 14.07 -0.34 7.14 0 0 Z " fill="#06090C" transform="translate(214,126)"/>
<path d="M0 0 C0.66 0 1.32 0 2 0 C2.08159574 4.16138263 1.98248524 7.9472484 1 12 C0.67 11.34 0.34 10.68 0 10 C-0.66 10 -1.32 10 -2 10 C-1.54177532 6.53058454 -1.10868317 3.32604951 0 0 Z " fill="#343435" transform="translate(180,191)"/>
<path d="M0 0 C2.79828356 0.38597015 3.8205884 0.80136573 5.75 2.9375 C7 5 7 5 7 7 C3.76509224 6.44225728 2.02144994 5.62788492 0 3 C0 2.01 0 1.02 0 0 Z " fill="#C99F64" transform="translate(179,127)"/>
<path d="M0 0 C0.66 0.99 1.32 1.98 2 3 C-0.31 4.65 -2.62 6.3 -5 8 C-6.32 7.34 -7.64 6.68 -9 6 C-8.071875 5.566875 -7.14375 5.13375 -6.1875 4.6875 C-3.52815927 3.27961373 -1.91894095 2.23876444 0 0 Z " fill="#52325B" transform="translate(167,155)"/>
<path d="M0 0 C1.71017726 2.5652659 2.90417811 4.87960965 4.125 7.6875 C4.47820313 8.49574219 4.83140625 9.30398437 5.1953125 10.13671875 C5.46085937 10.75160156 5.72640625 11.36648437 6 12 C5.01 12.495 5.01 12.495 4 13 C3.13372601 11.40233897 2.28233535 9.79660056 1.4375 8.1875 C0.96183594 7.29417969 0.48617187 6.40085938 -0.00390625 5.48046875 C-1 3 -1 3 0 0 Z " fill="#EAD7A9" transform="translate(55,189)"/>
<path d="M0 0 C2.62386487 3.06117568 3 3.73173127 3 8 C2.34 8 1.68 8 1 8 C0.67 7.34 0.34 6.68 0 6 C-0.99 6.66 -1.98 7.32 -3 8 C-1.125 1.125 -1.125 1.125 0 0 Z " fill="#E0D3AB" transform="translate(193,159)"/>
<path d="M0 0 C0.99 0.99 1.98 1.98 3 3 C0.69 4.32 -1.62 5.64 -4 7 C-4.66 6.34 -5.32 5.68 -6 5 C-4.02 3.35 -2.04 1.7 0 0 Z " fill="#E0C89B" transform="translate(162,209)"/>
<path d="M0 0 C0.78375 0.04125 1.5675 0.0825 2.375 0.125 C0.395 2.435 -1.585 4.745 -3.625 7.125 C-4.285 6.795 -4.945 6.465 -5.625 6.125 C-4.86443086 2.32215429 -4.27658992 0.20364714 0 0 Z " fill="#F2DDAD" transform="translate(157.625,201.875)"/>
<path d="M0 0 C2.475 0.495 2.475 0.495 5 1 C5 1.66 5 2.32 5 3 C6.32 3.66 7.64 4.32 9 5 C9 5.99 9 6.98 9 8 C7.68388323 7.04663979 6.37221039 6.08714226 5.0625 5.125 C4.33160156 4.59132812 3.60070312 4.05765625 2.84765625 3.5078125 C1 2 1 2 0 0 Z " fill="#ECD9A9" transform="translate(79,207)"/>
<path d="M0 0 C-0.598125 0.268125 -1.19625 0.53625 -1.8125 0.8125 C-3.99716585 1.99846146 -5.33235279 3.1807485 -7 5 C-7.66 5.66 -8.32 6.32 -9 7 C-9.33 5.02 -9.66 3.04 -10 1 C-6.52674819 -0.1577506 -3.63932552 -0.06866652 0 0 Z " fill="#201331" transform="translate(154,134)"/>
<path d="M0 0 C1.65 1.32 3.3 2.64 5 4 C3.35 4.66 1.7 5.32 0 6 C0 6.66 0 7.32 0 8 C-0.66 8 -1.32 8 -2 8 C-1.34 5.36 -0.68 2.72 0 0 Z " fill="#E2DCC3" transform="translate(137,174)"/>
<path d="M0 0 C0.99 0 1.98 0 3 0 C2 3 2 3 0 4 C0 4.99 0 5.98 0 7 C-1.32 7.33 -2.64 7.66 -4 8 C-2.68 5.36 -1.36 2.72 0 0 Z " fill="#ECE2C2" transform="translate(157,210)"/>
<path d="M0 0 C0.33 0.99 0.66 1.98 1 3 C-0.65 4.65 -2.3 6.3 -4 8 C-4.66 7.67 -5.32 7.34 -6 7 C-2.25 1.125 -2.25 1.125 0 0 Z " fill="#F6DEAC" transform="translate(171,202)"/>
<path d="M0 0 C0.66 0 1.32 0 2 0 C5 5.625 5 5.625 5 9 C2.5 6.75 2.5 6.75 0 4 C0 2.68 0 1.36 0 0 Z " fill="#EFCA6E" transform="translate(107,178)"/>
<path d="M0 0 C0 3.69418201 -1.28179295 5.77836178 -3 9 C-3.99 8.01 -4.98 7.02 -6 6 C-4.02 4.02 -2.04 2.04 0 0 Z " fill="#212224" transform="translate(160,202)"/>
<path d="M0 0 C0.66 0.33 1.32 0.66 2 1 C-0.475 4.465 -0.475 4.465 -3 8 C-3.33 6.68 -3.66 5.36 -4 4 C-2.0625 1.75 -2.0625 1.75 0 0 Z " fill="#1B3058" transform="translate(103,75)"/>
<path d="M0 0 C0.99 0.33 1.98 0.66 3 1 C3 1.99 3 2.98 3 4 C1.35 4.33 -0.3 4.66 -2 5 C-2 2 -2 2 0 0 Z " fill="#E8CB9B" transform="translate(159,198)"/>
<path d="M0 0 C2.375 0.25 2.375 0.25 5 1 C6.3125 3.0625 6.3125 3.0625 7 5 C6.01 5 5.02 5 4 5 C1.8125 2.5 1.8125 2.5 0 0 Z " fill="#DEAE39" transform="translate(110,186)"/>
<path d="M0 0 C3.73639216 1.24546405 4.18756513 2.63404953 6 6 C4.68 6.33 3.36 6.66 2 7 C1.34 4.69 0.68 2.38 0 0 Z " fill="#1B305A" transform="translate(26,142)"/>
<path d="M0 0 C1.32 1.32 2.64 2.64 4 4 C3.34 5.98 2.68 7.96 2 10 C1.67 10 1.34 10 1 10 C0.67 6.7 0.34 3.4 0 0 Z " fill="#020D1F" transform="translate(179,77)"/>
<path d="M0 0 C0.99 0.99 1.98 1.98 3 3 C1.25 6.875 1.25 6.875 -1 8 C-0.67 5.36 -0.34 2.72 0 0 Z " fill="#263F7A" transform="translate(17,101)"/>
</svg>
